<svg width="500" height="158.271" xmlns="http://www.w3.org/2000/svg">
 <defs>
  <linearGradient y2="0.503877" x2="0.949292" y1="0.473556" x1="-0.006647" id="SVGID_1_">
   <stop stop-color="#FAAF40" offset="0"/>
   <stop stop-color="#F6921E" offset="0.4434"/>
   <stop stop-color="#F68D1F" offset="0.5537"/>
   <stop stop-color="#F47E24" offset="0.6868"/>
   <stop stop-color="#F2662B" offset="0.8317"/>
   <stop stop-color="#EE4435" offset="0.9839"/>
   <stop stop-color="#EE4036" offset="1"/>
  </linearGradient>
  <linearGradient y2="0.496135" x2="0.050716" y1="0.526456" x1="1.006645" id="SVGID_2_">
   <stop stop-color="#FAAF40" offset="0"/>
   <stop stop-color="#F6921E" offset="0.4434"/>
   <stop stop-color="#F68D1F" offset="0.5537"/>
   <stop stop-color="#F47E24" offset="0.6868"/>
   <stop stop-color="#F2662B" offset="0.8317"/>
   <stop stop-color="#EE4435" offset="0.9839"/>
   <stop stop-color="#EE4036" offset="1"/>
  </linearGradient>
 </defs>
 <g>
  <title>background</title>
  <rect fill="none" id="canvas_background" height="160.271" width="502" y="-1" x="-1"/>
 </g>
 <g>
  <title>Layer 1</title>
  <g id="svg_1">
   <g id="svg_2">
    <path id="svg_3" d="m338.213,33.706c-2.933,0 -37.244,29.707 -37.244,32.64c0,2.934 4.96,9.896 7.894,9.896c2.938,0 26.418,-15.955 29.351,-15.955c2.937,0 38.132,42.555 41.068,42.555l12.116,0l0,-42.37c0,0 -2.4,-0.185 -5.335,-0.185c-2.937,0 -42.532,-26.581 -47.85,-26.581z" fill="#74CBD3"/>
    <g id="svg_4">
     <path id="svg_5" d="m396.708,44.334l0,85.107l26.6,0l0,-85.107l-26.6,0zm10.645,79.781c-2.941,0 -5.331,-2.377 -5.331,-5.32c0,-2.934 2.39,-5.309 5.331,-5.309c2.938,0 5.311,2.375 5.311,5.309c0.002,2.943 -2.373,5.32 -5.311,5.32z" fill="#74CBD3"/>
    </g>
    <path id="svg_6" d="m317.666,44.334c-5.865,0 -26.412,15.953 -29.344,15.953l-3.309,0l0,42.555l3.309,0c2.932,0 8.803,7.529 8.803,7.529l20.541,20.524c0,0 4.031,3.864 9.901,3.864c5.871,0 7.713,-3.864 7.713,-3.864s2.376,3.864 8.242,3.864c7.317,0 9.349,-6.783 9.349,-6.783s1.624,1.465 6.609,1.465c7.977,0 8.063,-7.336 8.063,-7.336s2.931,2.01 5.872,2.01c4.674,0 7.333,-4.946 7.333,-7.877c0,-5.41 -2.381,-9.59 -3.954,-11.759c-2.54,-1.878 -7.426,-7.08 -20.043,-21.159c-4.347,-4.842 -8.847,-9.853 -12.448,-13.709c-3.897,-4.169 -5.676,-5.815 -6.461,-6.464c-2.335,0.988 -8.622,4.786 -12.93,7.395c-10.89,6.582 -14.114,8.358 -16.051,8.358c-1.565,0 -4.087,-0.839 -7.166,-4.884c-0.794,-1.047 -3.383,-4.688 -3.383,-7.671c0,-1.305 0.432,-2.576 6.203,-8.228c3.154,-3.098 7.495,-7.087 12.224,-11.208c0.791,-0.682 1.582,-1.354 2.355,-2.02c-0.608,-0.356 -1.09,-0.555 -1.428,-0.555z" fill="#50C1C1"/>
    <g id="svg_7">
     <path id="svg_8" d="m253.119,44.334l0,85.107l26.577,0l0,-85.107l-26.577,0zm15.937,79.781c-2.938,0 -5.312,-2.377 -5.312,-5.32c0,-2.934 2.374,-5.309 5.312,-5.309c2.938,0 5.331,2.375 5.331,5.309c0,2.943 -2.393,5.32 -5.331,5.32z" fill="#50C1C1"/>
    </g>
   </g>
   <polygon id="svg_9" points="321.927978515625,26.527999877929688 321.927978515625,21.435001373291016 253.1190185546875,21.435001373291016 253.1190185546875,15.03700065612793 321.927978515625,15.03700065612793 321.927978515625,9.941999435424805 329.12799072265625,14.117000579833984 336.3289794921875,18.253999710083008 " fill="url(#SVGID_1_)"/>
   <polygon id="svg_10" points="354.4989929199219,9.941999435424805 354.4989929199219,15.035999298095703 423.3079833984375,15.035999298095703 423.3079833984375,21.433998107910156 354.4989929199219,21.433998107910156 354.4989929199219,26.527999877929688 347.2980041503906,22.354000091552734 340.0980224609375,18.215999603271484 " fill="url(#SVGID_2_)"/>
  </g>
  <g id="svg_30">
   <path id="svg_31" d="m97.979,127.93l-10.706,0l0,-83.942l17.426,0c7.136,0 12.566,2.089 16.288,6.264c3.417,4.025 5.125,9.795 5.125,17.312c0,7.67 -1.708,13.48 -5.125,17.428c-3.645,4.252 -9.075,6.377 -16.288,6.377l-6.72,0l0,36.561zm0,-47.381l6.72,0c2.961,0 4.972,-0.342 6.037,-1.025c1.063,-0.684 1.746,-1.213 2.05,-1.594c1.669,-1.746 2.505,-5.201 2.505,-10.365c0,-2.733 -0.228,-4.935 -0.683,-6.605c-0.456,-1.669 -1.121,-2.961 -1.993,-3.873c-0.874,-0.911 -1.976,-1.518 -3.303,-1.822c-1.329,-0.303 -2.867,-0.456 -4.613,-0.456l-6.72,0l0,25.74z"/>
   <path id="svg_32" d="m141.715,127.93l-10.707,0l0,-83.942l9.454,0l16.971,59.113l16.857,-59.113l9.453,0l0,83.941l-10.706,0l0,-40.204l-11.618,40.205l-8.087,0l-11.617,-40.205l0,40.205z"/>
   <path id="svg_33" d="m202.991,127.93l-10.707,0l0,-83.942l17.426,0c7.136,0 12.566,2.089 16.288,6.264c3.417,4.025 5.125,9.795 5.125,17.312c0,7.67 -1.708,13.48 -5.125,17.428c-3.645,4.252 -9.075,6.377 -16.288,6.377l-6.72,0l0,36.561l0.001,0zm0,-47.381l6.72,0c2.961,0 4.972,-0.342 6.037,-1.025c1.063,-0.684 1.746,-1.213 2.05,-1.594c1.669,-1.746 2.505,-5.201 2.505,-10.365c0,-2.733 -0.228,-4.935 -0.683,-6.605c-0.456,-1.669 -1.121,-2.961 -1.993,-3.873c-0.874,-0.911 -1.976,-1.518 -3.303,-1.822c-1.329,-0.303 -2.867,-0.456 -4.613,-0.456l-6.72,0l0,25.74z"/>
  </g>
 </g>
</svg>