<?xml version="1.0" encoding="utf-8"?>
<!-- Generator: Adobe Illustrator 16.0.0, SVG Export Plug-In . SVG Version: 6.00 Build 0)  -->
<!DOCTYPE svg PUBLIC "-//W3C//DTD SVG 1.1//EN" "http://www.w3.org/Graphics/SVG/1.1/DTD/svg11.dtd">
<svg version="1.1" id="Layer_1" xmlns="http://www.w3.org/2000/svg" xmlns:xlink="http://www.w3.org/1999/xlink" x="0px" y="0px"
	 width="761px" height="158.271px" viewBox="-8.5 0 761 158.271" enable-background="new -8.5 0 761 158.271" xml:space="preserve">
<g>
	<g>
		<path fill="#74CBD3" d="M225.213,45.706c-2.933,0-37.244,29.707-37.244,32.64c0,2.934,4.96,9.896,7.894,9.896
			c2.938,0,26.418-15.955,29.351-15.955c2.937,0,38.132,42.555,41.068,42.555h12.116v-42.37c0,0-2.4-0.185-5.335-0.185
			C270.126,72.287,230.531,45.706,225.213,45.706z"/>
		<g>
			<path fill="#74CBD3" d="M283.708,56.334v85.107h26.6V56.334H283.708z M294.353,136.115c-2.941,0-5.331-2.377-5.331-5.32
				c0-2.934,2.39-5.309,5.331-5.309c2.938,0,5.311,2.375,5.311,5.309C299.666,133.738,297.291,136.115,294.353,136.115z"/>
		</g>
		<path fill="#50C1C1" d="M204.666,56.334c-5.865,0-26.412,15.953-29.344,15.953h-3.309v42.555h3.309
			c2.932,0,8.803,7.529,8.803,7.529l20.541,20.524c0,0,4.031,3.864,9.901,3.864c5.871,0,7.713-3.864,7.713-3.864
			s2.376,3.864,8.242,3.864c7.317,0,9.349-6.783,9.349-6.783s1.624,1.465,6.609,1.465c7.977,0,8.063-7.336,8.063-7.336
			s2.931,2.01,5.872,2.01c4.674,0,7.333-4.946,7.333-7.877c0-5.41-2.381-9.59-3.954-11.759c-2.54-1.878-7.426-7.08-20.043-21.159
			c-4.347-4.842-8.847-9.853-12.448-13.709c-3.897-4.169-5.676-5.815-6.461-6.464c-2.335,0.988-8.622,4.786-12.93,7.395
			c-10.89,6.582-14.114,8.358-16.051,8.358c-1.565,0-4.087-0.839-7.166-4.884c-0.794-1.047-3.383-4.688-3.383-7.671
			c0-1.305,0.432-2.576,6.203-8.228c3.154-3.098,7.495-7.087,12.224-11.208c0.791-0.682,1.582-1.354,2.355-2.02
			C205.486,56.533,205.004,56.334,204.666,56.334z"/>
		<g>
			<path fill="#50C1C1" d="M140.119,56.334v85.107h26.577V56.334H140.119z M156.056,136.115c-2.938,0-5.312-2.377-5.312-5.32
				c0-2.934,2.374-5.309,5.312-5.309c2.938,0,5.331,2.375,5.331,5.309C161.387,133.738,158.994,136.115,156.056,136.115z"/>
		</g>
	</g>
	<linearGradient id="SVGID_1_" gradientUnits="userSpaceOnUse" x1="139.5659" y1="29.7964" x2="219.1096" y2="30.2993">
		<stop  offset="0" style="stop-color:#FAAF40"/>
		<stop  offset="0.4434" style="stop-color:#F6921E"/>
		<stop  offset="0.5537" style="stop-color:#F68D1F"/>
		<stop  offset="0.6868" style="stop-color:#F47E24"/>
		<stop  offset="0.8317" style="stop-color:#F2662B"/>
		<stop  offset="0.9839" style="stop-color:#EE4435"/>
		<stop  offset="1" style="stop-color:#EE4036"/>
	</linearGradient>
	<polygon fill="url(#SVGID_1_)" points="208.928,38.528 208.928,33.435 140.119,33.435 140.119,27.037 208.928,27.037 
		208.928,21.942 216.128,26.117 223.329,30.254 	"/>
	
		<linearGradient id="SVGID_2_" gradientUnits="userSpaceOnUse" x1="-10.7505" y1="11.6504" x2="68.7923" y2="12.1533" gradientTransform="matrix(-1 0 0 -1 300.1104 42.3242)">
		<stop  offset="0" style="stop-color:#FAAF40"/>
		<stop  offset="0.4434" style="stop-color:#F6921E"/>
		<stop  offset="0.5537" style="stop-color:#F68D1F"/>
		<stop  offset="0.6868" style="stop-color:#F47E24"/>
		<stop  offset="0.8317" style="stop-color:#F2662B"/>
		<stop  offset="0.9839" style="stop-color:#EE4435"/>
		<stop  offset="1" style="stop-color:#EE4036"/>
	</linearGradient>
	<polygon fill="url(#SVGID_2_)" points="241.499,21.942 241.499,27.036 310.308,27.036 310.308,33.434 241.499,33.434 
		241.499,38.528 234.298,34.354 227.098,30.216 	"/>
</g>
<g>
	<path d="M321.809,91.643c0-1.663,1.157-2.912,2.773-2.912c1.617,0,2.681,1.202,2.727,2.912c0,1.663-1.109,2.911-2.774,2.911
		C322.918,94.554,321.764,93.306,321.809,91.643z"/>
	<path d="M332.854,73.019c1.941-0.323,4.483-0.601,7.717-0.601c3.976,0,6.887,0.924,8.734,2.589
		c1.711,1.478,2.728,3.742,2.728,6.516c0,2.818-0.832,5.037-2.402,6.654c-2.128,2.265-5.594,3.419-9.521,3.419
		c-1.202,0-2.31-0.046-3.235-0.276v12.478h-4.021V73.019z M336.875,88.037c0.879,0.232,1.987,0.325,3.328,0.325
		c4.851,0,7.811-2.357,7.811-6.656c0-4.112-2.912-6.099-7.349-6.099c-1.757,0-3.097,0.138-3.79,0.323V88.037z"/>
	<path d="M376.391,92.429c0,8.272-5.73,11.876-11.137,11.876c-6.054,0-10.722-4.438-10.722-11.507
		c0-7.486,4.898-11.876,11.09-11.876C372.047,80.922,376.391,85.588,376.391,92.429z M358.645,92.659
		c0,4.898,2.819,8.596,6.793,8.596c3.881,0,6.795-3.651,6.795-8.688c0-3.79-1.896-8.596-6.701-8.596
		C360.724,83.972,358.645,88.407,358.645,92.659z"/>
	<path d="M382.818,81.43l2.958,11.368c0.647,2.496,1.247,4.806,1.663,7.117h0.138c0.51-2.265,1.249-4.668,1.988-7.07l3.651-11.415
		h3.42l3.466,11.183c0.832,2.682,1.479,5.038,1.986,7.303h0.139c0.37-2.265,0.971-4.621,1.71-7.256l3.188-11.229h4.021l-7.21,22.367
		h-3.696l-3.421-10.676c-0.784-2.495-1.433-4.714-1.986-7.348h-0.093c-0.554,2.681-1.249,4.99-2.033,7.395l-3.604,10.629h-3.696
		l-6.748-22.367H382.818z"/>
	<path d="M417.02,93.353c0.093,5.5,3.605,7.764,7.673,7.764c2.91,0,4.668-0.508,6.191-1.156l0.693,2.912
		c-1.433,0.646-3.882,1.387-7.44,1.387c-6.887,0-10.999-4.529-10.999-11.276c0-6.746,3.975-12.061,10.491-12.061
		c7.3,0,9.242,6.424,9.242,10.536c0,0.831-0.092,1.479-0.14,1.895H417.02z M428.942,90.441c0.048-2.588-1.062-6.609-5.638-6.609
		c-4.112,0-5.915,3.789-6.239,6.609H428.942z"/>
	<path d="M437.912,88.407c0-2.634-0.047-4.898-0.185-6.978h3.557l0.14,4.391h0.186c1.017-3.005,3.466-4.898,6.191-4.898
		c0.463,0,0.786,0.045,1.156,0.138v3.837c-0.416-0.093-0.832-0.14-1.387-0.14c-2.865,0-4.898,2.173-5.453,5.223
		c-0.092,0.554-0.185,1.2-0.185,1.894v11.924h-4.021V88.407z"/>
	<path d="M454.828,93.353c0.093,5.5,3.604,7.764,7.671,7.764c2.91,0,4.668-0.508,6.191-1.156l0.695,2.912
		c-1.433,0.646-3.882,1.387-7.442,1.387c-6.885,0-10.998-4.529-10.998-11.276c0-6.746,3.976-12.061,10.491-12.061
		c7.301,0,9.242,6.424,9.242,10.536c0,0.831-0.092,1.479-0.139,1.895H454.828z M466.751,90.441c0.046-2.588-1.063-6.609-5.639-6.609
		c-4.112,0-5.915,3.789-6.238,6.609H466.751z"/>
	<path d="M495.035,70.985V98.02c0,1.987,0.048,4.252,0.186,5.777h-3.651l-0.185-3.882h-0.093c-1.247,2.494-3.973,4.39-7.624,4.39
		c-5.408,0-9.566-4.575-9.566-11.367c-0.045-7.44,4.574-12.016,10.028-12.016c3.42,0,5.729,1.617,6.746,3.419h0.093V70.985H495.035z
		 M490.969,90.533c0-0.508-0.047-1.201-0.184-1.71c-0.601-2.587-2.819-4.713-5.87-4.713c-4.206,0-6.701,3.696-6.701,8.642
		c0,4.528,2.219,8.272,6.609,8.272c2.727,0,5.222-1.804,5.962-4.854c0.137-0.554,0.184-1.109,0.184-1.756V90.533z"/>
	<path d="M511.4,103.797c0.093-1.525,0.184-3.79,0.184-5.777V70.985h4.021v14.049h0.093c1.432-2.495,4.02-4.112,7.625-4.112
		c5.545,0,9.473,4.621,9.427,11.414c0,7.994-5.038,11.969-10.027,11.969c-3.235,0-5.824-1.247-7.487-4.205h-0.139l-0.185,3.697
		H511.4z M515.605,94.831c0,0.509,0.093,1.017,0.185,1.479c0.786,2.818,3.142,4.759,6.101,4.759c4.252,0,6.792-3.466,6.792-8.595
		c0-4.482-2.31-8.319-6.653-8.319c-2.772,0-5.361,1.896-6.193,4.991c-0.091,0.463-0.23,1.017-0.23,1.665V94.831z"/>
	<path d="M539.038,81.43l4.898,13.216c0.509,1.479,1.063,3.235,1.433,4.575h0.093c0.416-1.34,0.879-3.05,1.433-4.667l4.436-13.124
		h4.299l-6.1,15.943c-2.912,7.671-4.898,11.6-7.671,14.002c-1.988,1.757-3.975,2.449-4.991,2.634l-1.017-3.419
		c1.017-0.324,2.356-0.971,3.559-1.987c1.107-0.877,2.494-2.449,3.418-4.528c0.186-0.416,0.323-0.74,0.323-0.972
		c0-0.23-0.091-0.554-0.275-1.062l-8.273-20.611H539.038z"/>
	<path d="M584.267,84.637c0.275,0.273,0.457,0.503,0.55,0.686c1.964,2.377,2.949,5.852,2.949,10.424
		c0,4.619-0.985,8.068-2.949,10.356c-2.059,2.562-5.212,3.84-9.466,3.84h-3.292h-6.445v-6.446V59.397h9.737
		c4.299,0,7.453,1.281,9.466,3.842c1.964,2.285,2.949,5.737,2.949,10.355c0,4.571-0.985,8.049-2.949,10.425
		C584.724,84.155,584.542,84.362,584.267,84.637z M572.059,81.412h3.292c1.463,0,2.516-0.172,3.156-0.516
		c0.64-0.342,1.073-0.672,1.303-0.993c0.96-1.143,1.441-3.246,1.441-6.31c0-1.782-0.15-3.188-0.446-4.217
		c-0.299-1.03-0.712-1.807-1.235-2.332c-0.527-0.526-1.155-0.857-1.887-0.995c-0.729-0.135-1.508-0.205-2.332-0.205h-3.292V81.412z
		 M575.351,103.496c0.824,0,1.603-0.069,2.332-0.206c0.731-0.137,1.359-0.47,1.887-0.996c0.523-0.524,0.937-1.302,1.235-2.331
		c0.296-1.029,0.446-2.433,0.446-4.217c0-1.829-0.162-3.268-0.481-4.321c-0.32-1.051-0.742-1.839-1.27-2.366
		c-0.524-0.523-1.141-0.856-1.852-0.995c-0.709-0.137-1.474-0.205-2.298-0.205h-3.292v15.638H575.351z"/>
	<path d="M603.4,109.942c-1.235,0-2.331-0.126-3.291-0.379c-0.963-0.249-1.818-0.569-2.572-0.958s-1.396-0.823-1.92-1.304
		c-0.527-0.48-0.974-0.948-1.34-1.407c-1.92-2.468-2.88-5.941-2.88-10.424V73.8c0-4.481,0.96-7.956,2.88-10.425
		c0.731-0.914,1.819-1.805,3.26-2.675c1.439-0.867,3.394-1.303,5.863-1.303c2.469,0,4.41,0.436,5.829,1.303
		c1.417,0.87,2.492,1.761,3.224,2.675c1.964,2.514,2.948,5.991,2.948,10.425v3.224h-6.515V73.8c0-1.966-0.195-3.499-0.582-4.595
		c-0.391-1.097-0.868-1.887-1.442-2.366c-0.572-0.481-1.177-0.765-1.815-0.858c-0.641-0.092-1.189-0.136-1.646-0.136
		c-0.506,0-1.063,0.044-1.68,0.136c-0.618,0.093-1.224,0.377-1.819,0.858c-0.595,0.479-1.085,1.269-1.474,2.366
		c-0.389,1.096-0.584,2.629-0.584,4.595v21.671c0,2.975,0.525,5.122,1.579,6.446c0.229,0.32,0.64,0.664,1.233,1.028
		c0.593,0.367,1.509,0.551,2.744,0.551c1.234,0,2.135-0.184,2.707-0.551c0.573-0.364,0.995-0.708,1.271-1.028
		c1.004-1.371,1.508-3.52,1.508-6.446v-3.223h6.515v3.223c0,4.436-0.984,7.911-2.948,10.424c-0.731,0.916-1.807,1.818-3.224,2.711
		C607.811,109.496,605.869,109.942,603.4,109.942z"/>
	<path d="M637.622,85.047c1.233,1.19,2.183,2.606,2.845,4.253c0.663,1.646,0.995,3.521,0.995,5.624v14.949h-6.515V94.924
		c0-4.436-2.151-6.652-6.447-6.652h-3.223h-0.824v21.602h-6.445V59.33H628.5c4.343,0,7.612,1.279,9.807,3.84
		c2.011,2.332,3.019,5.854,3.019,10.562c0,4.663-1.008,8.208-3.019,10.631c-0.092,0.091-0.195,0.205-0.309,0.343
		C637.885,84.841,637.759,84.956,637.622,85.047z M628.5,81.753c1.737,0,2.937-0.205,3.6-0.615c0.664-0.41,1.088-0.732,1.269-0.96
		c1.007-1.279,1.511-3.43,1.511-6.446c0-1.691-0.138-3.052-0.412-4.081s-0.676-1.829-1.199-2.401
		c-0.528-0.571-1.19-0.948-1.989-1.13c-0.802-0.183-1.727-0.274-2.778-0.274h-4.047v15.909h0.824H628.5z"/>
	<path d="M648.664,109.942V59.397h6.445v50.545H648.664z"/>
	<path d="M670.883,109.942c-1.143,0-2.299-0.161-3.463-0.482c-1.166-0.318-2.228-0.935-3.188-1.851
		c-0.964-0.913-1.74-2.158-2.333-3.737c-0.595-1.578-0.893-3.646-0.893-6.206V75.925c0-2.515,0.298-4.57,0.893-6.171
		c0.593-1.6,1.369-2.846,2.333-3.739c0.96-0.89,2.021-1.495,3.188-1.816c1.164-0.321,2.32-0.481,3.463-0.481
		c1.098,0,2.23,0.161,3.396,0.481c1.166,0.321,2.229,0.926,3.188,1.816c0.961,0.894,1.736,2.139,2.331,3.739
		c0.595,1.601,0.893,3.656,0.893,6.171v1.099h-2.195v-1.099c0-3.519-0.64-6.08-1.92-7.681c-1.327-1.599-3.224-2.399-5.692-2.399
		c-2.515,0-4.435,0.8-5.76,2.399c-1.282,1.601-1.92,4.163-1.92,7.681v21.741c0,3.521,0.662,6.104,1.989,7.75
		c1.233,1.601,3.128,2.398,5.69,2.398c2.469,0,4.365-0.798,5.692-2.398c1.28-1.69,1.92-4.274,1.92-7.75V96.57h2.195v1.096
		c0,2.561-0.298,4.628-0.893,6.206c-0.595,1.579-1.37,2.824-2.331,3.737c-0.96,0.916-2.022,1.532-3.188,1.851
		C673.113,109.781,671.98,109.942,670.883,109.942z"/>
	<path d="M694.543,109.942c-1.097,0-2.229-0.161-3.396-0.482c-1.166-0.318-2.229-0.935-3.188-1.851
		c-0.96-0.913-1.738-2.158-2.333-3.737c-0.594-1.578-0.891-3.646-0.891-6.206V75.925c0-3.931,0.8-6.949,2.401-9.051
		c1.69-2.103,4.158-3.157,7.406-3.157c3.291,0,5.761,1.054,7.407,3.157c1.646,2.055,2.468,5.074,2.468,9.051v21.741
		c0,2.561-0.3,4.628-0.891,6.206c-0.596,1.579-1.373,2.824-2.332,3.737c-0.961,0.916-2.024,1.532-3.188,1.851
		C696.841,109.781,695.685,109.942,694.543,109.942z M694.543,65.844c-2.606,0-4.505,0.8-5.692,2.399
		c-1.326,1.692-1.99,4.254-1.99,7.681v21.741c0,3.476,0.664,6.06,1.99,7.75c1.234,1.601,3.13,2.398,5.692,2.398
		c2.514,0,4.434-0.798,5.761-2.398c1.279-1.602,1.92-4.186,1.92-7.75V75.925c0-3.519-0.641-6.08-1.92-7.681
		C699.023,66.645,697.104,65.844,694.543,65.844z"/>
	<path d="M725.267,88.887c2.059,1.968,3.087,4.688,3.087,8.162v12.824h-2.195V97.049c0-2.79-0.753-4.948-2.263-6.48
		c-1.509-1.531-3.634-2.297-6.377-2.297h-1.028h-5.146v21.602h-2.125V63.649h8.299c3.702,0,6.411,0.994,8.126,2.983
		s2.571,5.088,2.571,9.293c0,4.116-0.846,7.18-2.536,9.189c-0.732,0.871-1.647,1.579-2.744,2.128
		C723.804,87.653,724.581,88.202,725.267,88.887z M717.519,86.075c3.063,0,5.233-0.776,6.514-2.332
		c1.373-1.646,2.059-4.252,2.059-7.818c0-3.61-0.664-6.193-1.988-7.748c-1.327-1.556-3.521-2.333-6.584-2.333h-6.174v20.231h5.146
		H717.519z"/>
	<path d="M735.141,65.844v19.888h14.473v2.126h-14.473v19.956h14.473v2.128h-16.598V63.717h16.598v2.127H735.141z"/>
</g>
<g>
	<path d="M3.979,139.93H-6.727V55.988h17.426c7.136,0,12.566,2.089,16.288,6.264c3.417,4.025,5.125,9.795,5.125,17.312
		c0,7.67-1.708,13.48-5.125,17.428c-3.645,4.252-9.075,6.377-16.288,6.377h-6.72V139.93z M3.979,92.549h6.72
		c2.961,0,4.972-0.342,6.037-1.025c1.063-0.684,1.746-1.213,2.05-1.594c1.669-1.746,2.505-5.201,2.505-10.365
		c0-2.733-0.228-4.935-0.683-6.605c-0.456-1.669-1.121-2.961-1.993-3.873c-0.874-0.911-1.976-1.518-3.303-1.822
		c-1.329-0.303-2.867-0.456-4.613-0.456h-6.72V92.549z"/>
	<path d="M47.715,139.93H37.008V55.988h9.454l16.971,59.113L80.29,55.988h9.453v83.941H79.037V99.725L67.419,139.93h-8.087
		L47.715,99.725V139.93z"/>
	<path d="M108.991,139.93H98.284V55.988h17.426c7.136,0,12.566,2.089,16.288,6.264c3.417,4.025,5.125,9.795,5.125,17.312
		c0,7.67-1.708,13.48-5.125,17.428c-3.645,4.252-9.075,6.377-16.288,6.377h-6.72V139.93z M108.991,92.549h6.72
		c2.961,0,4.972-0.342,6.037-1.025c1.063-0.684,1.746-1.213,2.05-1.594c1.669-1.746,2.505-5.201,2.505-10.365
		c0-2.733-0.228-4.935-0.683-6.605c-0.456-1.669-1.121-2.961-1.993-3.873c-0.874-0.911-1.976-1.518-3.303-1.822
		c-1.329-0.303-2.867-0.456-4.613-0.456h-6.72V92.549z"/>
</g>
</svg>
