<?xml version="1.0" encoding="utf-8"?>
<!-- Generator: Adobe Illustrator 16.0.0, SVG Export Plug-In . SVG Version: 6.00 Build 0)  -->
<!DOCTYPE svg PUBLIC "-//W3C//DTD SVG 1.1//EN" "http://www.w3.org/Graphics/SVG/1.1/DTD/svg11.dtd">
<svg version="1.1" id="Layer_1" xmlns="http://www.w3.org/2000/svg" xmlns:xlink="http://www.w3.org/1999/xlink" x="0px" y="0px"
	 width="328px" height="181.938px" viewBox="0 0 328 181.938" enable-background="new 0 0 328 181.938" xml:space="preserve">
<g>
	<g>
		<path fill="#74CBD3" d="M236.213,45.706c-2.933,0-37.244,29.707-37.244,32.64c0,2.934,4.96,9.896,7.894,9.896
			c2.938,0,26.418-15.955,29.351-15.955c2.937,0,38.132,42.555,41.068,42.555h12.116v-42.37c0,0-2.4-0.185-5.335-0.185
			C281.126,72.287,241.531,45.706,236.213,45.706z"/>
		<g>
			<path fill="#74CBD3" d="M294.708,56.334v85.107h26.6V56.334H294.708z M305.353,136.115c-2.941,0-5.331-2.377-5.331-5.32
				c0-2.934,2.39-5.309,5.331-5.309c2.938,0,5.311,2.375,5.311,5.309C310.666,133.738,308.291,136.115,305.353,136.115z"/>
		</g>
		<path fill="#50C1C1" d="M215.666,56.334c-5.865,0-26.412,15.953-29.344,15.953h-3.309v42.555h3.309
			c2.932,0,8.803,7.529,8.803,7.529l20.541,20.524c0,0,4.031,3.864,9.901,3.864c5.871,0,7.713-3.864,7.713-3.864
			s2.376,3.864,8.242,3.864c7.317,0,9.349-6.783,9.349-6.783s1.624,1.465,6.609,1.465c7.977,0,8.063-7.336,8.063-7.336
			s2.931,2.01,5.872,2.01c4.674,0,7.333-4.946,7.333-7.877c0-5.41-2.381-9.59-3.954-11.759c-2.54-1.878-7.426-7.08-20.043-21.159
			c-4.347-4.842-8.847-9.853-12.448-13.709c-3.897-4.169-5.676-5.815-6.461-6.464c-2.335,0.988-8.622,4.786-12.93,7.395
			c-10.89,6.582-14.114,8.358-16.051,8.358c-1.565,0-4.087-0.839-7.166-4.884c-0.794-1.047-3.383-4.688-3.383-7.671
			c0-1.305,0.432-2.576,6.203-8.228c3.154-3.098,7.495-7.087,12.224-11.208c0.791-0.682,1.582-1.354,2.355-2.02
			C216.486,56.533,216.004,56.334,215.666,56.334z"/>
		<g>
			<path fill="#50C1C1" d="M151.119,56.334v85.107h26.577V56.334H151.119z M167.057,136.115c-2.938,0-5.313-2.377-5.313-5.32
				c0-2.934,2.374-5.309,5.313-5.309c2.938,0,5.33,2.375,5.33,5.309C172.387,133.738,169.994,136.115,167.057,136.115z"/>
		</g>
	</g>
	<linearGradient id="SVGID_1_" gradientUnits="userSpaceOnUse" x1="150.5664" y1="29.7969" x2="230.1101" y2="30.2998">
		<stop  offset="0" style="stop-color:#FAAF40"/>
		<stop  offset="0.4434" style="stop-color:#F6921E"/>
		<stop  offset="0.5537" style="stop-color:#F68D1F"/>
		<stop  offset="0.6868" style="stop-color:#F47E24"/>
		<stop  offset="0.8317" style="stop-color:#F2662B"/>
		<stop  offset="0.9839" style="stop-color:#EE4435"/>
		<stop  offset="1" style="stop-color:#EE4036"/>
	</linearGradient>
	<polygon fill="url(#SVGID_1_)" points="219.928,38.528 219.928,33.435 151.119,33.435 151.119,27.037 219.928,27.037 
		219.928,21.942 227.128,26.117 234.329,30.254 	"/>
	
		<linearGradient id="SVGID_2_" gradientUnits="userSpaceOnUse" x1="-21.7495" y1="11.6514" x2="57.7923" y2="12.1543" gradientTransform="matrix(-1 0 0 -1 300.1104 42.3242)">
		<stop  offset="0" style="stop-color:#FAAF40"/>
		<stop  offset="0.4434" style="stop-color:#F6921E"/>
		<stop  offset="0.5537" style="stop-color:#F68D1F"/>
		<stop  offset="0.6868" style="stop-color:#F47E24"/>
		<stop  offset="0.8317" style="stop-color:#F2662B"/>
		<stop  offset="0.9839" style="stop-color:#EE4435"/>
		<stop  offset="1" style="stop-color:#EE4036"/>
	</linearGradient>
	<polygon fill="url(#SVGID_2_)" points="252.499,21.942 252.499,27.036 321.308,27.036 321.308,33.434 252.499,33.434 
		252.499,38.528 245.298,34.354 238.098,30.216 	"/>
</g>
<g>
	<path d="M154.392,161.096c0.695-0.115,1.604-0.215,2.761-0.215c1.423,0,2.464,0.331,3.125,0.926
		c0.612,0.529,0.976,1.341,0.976,2.332c0,1.009-0.298,1.803-0.859,2.381c-0.762,0.812-2.002,1.224-3.408,1.224
		c-0.43,0-0.826-0.016-1.157-0.099v4.465h-1.438V161.096z M155.83,166.47c0.314,0.083,0.711,0.117,1.191,0.117
		c1.735,0,2.794-0.844,2.794-2.382c0-1.472-1.042-2.183-2.629-2.183c-0.629,0-1.108,0.049-1.356,0.115V166.47z"/>
	<path d="M169.971,168.042c0,2.959-2.051,4.249-3.985,4.249c-2.167,0-3.837-1.587-3.837-4.117c0-2.679,1.753-4.25,3.969-4.25
		C168.416,163.924,169.971,165.594,169.971,168.042z M163.62,168.124c0,1.753,1.009,3.076,2.431,3.076
		c1.389,0,2.432-1.307,2.432-3.109c0-1.355-0.679-3.075-2.398-3.075S163.62,166.603,163.62,168.124z"/>
	<path d="M172.271,164.104l1.059,4.069c0.231,0.893,0.446,1.72,0.595,2.547h0.05c0.183-0.811,0.446-1.67,0.712-2.53l1.307-4.086
		h1.223l1.24,4.003c0.298,0.959,0.529,1.803,0.711,2.613h0.05c0.132-0.811,0.348-1.654,0.612-2.597l1.141-4.02h1.439l-2.58,8.005
		h-1.323l-1.224-3.82c-0.281-0.892-0.513-1.687-0.711-2.629h-0.033c-0.198,0.959-0.447,1.786-0.729,2.646l-1.289,3.803h-1.322
		l-2.415-8.005H172.271z"/>
	<path d="M184.509,168.372c0.033,1.969,1.29,2.778,2.745,2.778c1.042,0,1.671-0.183,2.217-0.414l0.248,1.043
		c-0.513,0.23-1.39,0.496-2.663,0.496c-2.464,0-3.936-1.621-3.936-4.036c0-2.414,1.422-4.315,3.754-4.315
		c2.612,0,3.308,2.299,3.308,3.771c0,0.297-0.033,0.529-0.051,0.678H184.509z M188.775,167.331c0.018-0.927-0.38-2.366-2.018-2.366
		c-1.471,0-2.116,1.356-2.232,2.366H188.775z"/>
	<path d="M191.984,166.603c0-0.942-0.016-1.753-0.065-2.498h1.272l0.051,1.572h0.066c0.363-1.075,1.24-1.753,2.215-1.753
		c0.166,0,0.281,0.017,0.414,0.05v1.373c-0.148-0.034-0.297-0.051-0.496-0.051c-1.025,0-1.753,0.777-1.951,1.869
		c-0.033,0.198-0.066,0.43-0.066,0.678v4.267h-1.439V166.603z"/>
	<path d="M198.038,168.372c0.034,1.969,1.29,2.778,2.745,2.778c1.041,0,1.67-0.183,2.216-0.414l0.249,1.043
		c-0.514,0.23-1.39,0.496-2.664,0.496c-2.463,0-3.936-1.621-3.936-4.036c0-2.414,1.424-4.315,3.754-4.315
		c2.613,0,3.309,2.299,3.309,3.771c0,0.297-0.033,0.529-0.05,0.678H198.038z M202.305,167.331c0.017-0.927-0.38-2.366-2.018-2.366
		c-1.472,0-2.117,1.356-2.232,2.366H202.305z"/>
	<path d="M212.426,160.368v9.674c0,0.711,0.018,1.521,0.066,2.067h-1.307l-0.065-1.389h-0.034c-0.445,0.893-1.422,1.57-2.728,1.57
		c-1.935,0-3.423-1.637-3.423-4.067c-0.017-2.662,1.637-4.3,3.588-4.3c1.225,0,2.051,0.579,2.414,1.224h0.033v-4.779H212.426z
		 M210.971,167.363c0-0.182-0.017-0.431-0.065-0.612c-0.215-0.926-1.009-1.686-2.101-1.686c-1.506,0-2.398,1.322-2.398,3.092
		c0,1.62,0.794,2.96,2.365,2.96c0.977,0,1.869-0.646,2.134-1.736c0.049-0.198,0.065-0.397,0.065-0.629V167.363z"/>
	<path d="M218.282,172.109c0.033-0.546,0.065-1.356,0.065-2.067v-9.674h1.439v5.027h0.033c0.512-0.893,1.438-1.472,2.729-1.472
		c1.984,0,3.389,1.654,3.373,4.085c0,2.86-1.803,4.282-3.588,4.282c-1.158,0-2.084-0.445-2.68-1.505h-0.05l-0.065,1.323H218.282z
		 M219.787,168.901c0,0.183,0.033,0.363,0.066,0.529c0.281,1.008,1.123,1.703,2.183,1.703c1.521,0,2.431-1.24,2.431-3.076
		c0-1.604-0.827-2.977-2.381-2.977c-0.992,0-1.918,0.678-2.217,1.786c-0.032,0.165-0.082,0.364-0.082,0.596V168.901z"/>
	<path d="M228.172,164.104l1.752,4.73c0.183,0.529,0.381,1.158,0.514,1.637h0.033c0.148-0.479,0.314-1.091,0.512-1.669l1.588-4.698
		h1.539l-2.184,5.706c-1.041,2.746-1.753,4.151-2.744,5.012c-0.711,0.628-1.423,0.875-1.787,0.941l-0.363-1.224
		c0.363-0.116,0.843-0.347,1.273-0.711c0.396-0.313,0.893-0.877,1.224-1.62c0.066-0.148,0.115-0.265,0.115-0.348
		c0-0.082-0.032-0.198-0.099-0.381l-2.961-7.376H228.172z"/>
	<path d="M244.355,165.253c0.098,0.099,0.164,0.181,0.197,0.245c0.703,0.852,1.057,2.095,1.057,3.73
		c0,1.653-0.354,2.888-1.057,3.706c-0.736,0.917-1.865,1.374-3.387,1.374h-1.178h-2.307v-2.306v-15.781h3.484
		c1.539,0,2.666,0.458,3.387,1.375c0.703,0.817,1.057,2.053,1.057,3.706c0,1.635-0.354,2.879-1.057,3.729
		C244.52,165.081,244.453,165.155,244.355,165.253z M239.801,164.065h1.182c0.525,0,0.902-0.063,1.133-0.186
		c0.23-0.122,0.387-0.241,0.467-0.356c0.346-0.41,0.518-1.165,0.518-2.264c0-0.64-0.053-1.145-0.16-1.514
		c-0.107-0.371-0.256-0.649-0.443-0.837c-0.189-0.189-0.414-0.308-0.676-0.357c-0.262-0.049-0.541-0.073-0.838-0.073h-1.182V164.065
		z M241.166,172.003c0.295,0,0.572-0.025,0.834-0.075c0.262-0.048,0.486-0.167,0.674-0.356c0.189-0.188,0.336-0.466,0.443-0.834
		c0.105-0.367,0.16-0.87,0.16-1.509c0-0.654-0.059-1.169-0.172-1.546c-0.115-0.376-0.266-0.658-0.455-0.847
		c-0.188-0.188-0.408-0.307-0.662-0.355c-0.254-0.05-0.527-0.074-0.822-0.074h-1.178v5.597H241.166z"/>
	<path d="M251.203,174.309c-0.441,0-0.834-0.045-1.178-0.136c-0.344-0.089-0.65-0.203-0.922-0.343
		c-0.268-0.139-0.498-0.294-0.686-0.466c-0.189-0.172-0.35-0.34-0.48-0.504c-0.686-0.883-1.029-2.127-1.029-3.73v-7.755
		c0-1.603,0.344-2.846,1.029-3.729c0.264-0.327,0.652-0.646,1.166-0.957c0.518-0.311,1.215-0.467,2.1-0.467
		c0.883,0,1.578,0.156,2.086,0.467c0.506,0.311,0.891,0.63,1.154,0.957c0.701,0.899,1.053,2.144,1.053,3.729v1.154h-2.33v-1.154
		c0-0.703-0.07-1.252-0.209-1.644c-0.139-0.393-0.309-0.676-0.516-0.847c-0.205-0.172-0.422-0.274-0.65-0.308
		c-0.229-0.032-0.424-0.048-0.588-0.048c-0.182,0-0.381,0.016-0.602,0.048c-0.221,0.033-0.438,0.136-0.652,0.308
		c-0.211,0.171-0.387,0.454-0.525,0.847c-0.139,0.392-0.209,0.94-0.209,1.644v7.755c0,1.064,0.188,1.833,0.566,2.307
		c0.08,0.115,0.227,0.238,0.439,0.368c0.213,0.132,0.541,0.198,0.982,0.198s0.764-0.066,0.969-0.198
		c0.205-0.13,0.357-0.253,0.455-0.368c0.359-0.49,0.539-1.259,0.539-2.307v-1.152h2.33v1.152c0,1.587-0.352,2.831-1.053,3.73
		c-0.264,0.327-0.648,0.65-1.154,0.97C252.781,174.149,252.086,174.309,251.203,174.309z"/>
	<path d="M263.449,165.4c0.441,0.426,0.781,0.933,1.018,1.521c0.238,0.59,0.355,1.261,0.355,2.013v5.35h-2.33v-5.35
		c0-1.588-0.77-2.381-2.307-2.381h-1.154h-0.295v7.73h-2.307v-18.087h3.756c1.553,0,2.723,0.458,3.508,1.374
		c0.721,0.835,1.08,2.095,1.08,3.779c0,1.67-0.359,2.938-1.08,3.805c-0.031,0.032-0.068,0.073-0.109,0.123
		C263.543,165.326,263.498,165.367,263.449,165.4z M260.057,164.188c0.625,0,1.055-0.073,1.293-0.221
		c0.238-0.146,0.389-0.263,0.455-0.345c0.361-0.459,0.543-1.23,0.543-2.313c0-0.606-0.051-1.095-0.148-1.465
		c-0.1-0.369-0.242-0.656-0.43-0.861c-0.189-0.205-0.428-0.341-0.715-0.405c-0.287-0.065-0.621-0.099-0.998-0.099h-1.451v5.709
		h0.295H260.057z"/>
	<path d="M267.4,174.309v-18.087h2.307v18.087H267.4z"/>
	<path d="M275.35,174.309c-0.408,0-0.822-0.058-1.238-0.172c-0.418-0.114-0.797-0.335-1.141-0.662
		c-0.346-0.327-0.623-0.772-0.834-1.338c-0.213-0.565-0.32-1.305-0.32-2.222v-7.779c0-0.899,0.107-1.635,0.32-2.208
		c0.211-0.573,0.488-1.019,0.834-1.338c0.344-0.319,0.723-0.535,1.141-0.65c0.416-0.114,0.83-0.172,1.238-0.172
		c0.395,0,0.799,0.058,1.217,0.172c0.416,0.115,0.797,0.331,1.141,0.65s0.621,0.765,0.834,1.338s0.32,1.309,0.32,2.208v0.394h-0.787
		v-0.394c0-1.259-0.229-2.176-0.688-2.749c-0.473-0.571-1.152-0.857-2.037-0.857c-0.898,0-1.586,0.286-2.061,0.857
		c-0.457,0.573-0.686,1.49-0.686,2.749v7.779c0,1.26,0.236,2.185,0.711,2.774c0.441,0.572,1.119,0.858,2.035,0.858
		c0.885,0,1.564-0.286,2.037-0.858c0.459-0.605,0.688-1.529,0.688-2.774v-0.392h0.787v0.392c0,0.917-0.107,1.656-0.32,2.222
		s-0.49,1.011-0.834,1.338s-0.725,0.548-1.141,0.662C276.148,174.251,275.744,174.309,275.35,174.309z"/>
	<path d="M283.818,174.309c-0.393,0-0.799-0.058-1.217-0.172c-0.416-0.114-0.797-0.335-1.141-0.662
		c-0.342-0.327-0.621-0.772-0.834-1.338s-0.32-1.305-0.32-2.222v-7.779c0-1.406,0.287-2.486,0.861-3.239
		c0.604-0.752,1.488-1.129,2.65-1.129c1.178,0,2.059,0.377,2.65,1.129c0.588,0.736,0.883,1.816,0.883,3.239v7.779
		c0,0.917-0.107,1.656-0.318,2.222c-0.213,0.565-0.492,1.011-0.836,1.338s-0.725,0.548-1.141,0.662S284.227,174.309,283.818,174.309
		z M283.818,158.529c-0.934,0-1.613,0.286-2.037,0.857c-0.477,0.606-0.713,1.522-0.713,2.749v7.779c0,1.245,0.236,2.169,0.713,2.774
		c0.441,0.572,1.119,0.858,2.037,0.858c0.898,0,1.586-0.286,2.059-0.858c0.459-0.573,0.689-1.498,0.689-2.774v-7.779
		c0-1.259-0.23-2.176-0.689-2.749C285.42,158.815,284.732,158.529,283.818,158.529z"/>
	<path d="M294.813,166.774c0.736,0.704,1.104,1.677,1.104,2.921v4.589h-0.785v-4.589c0-0.998-0.27-1.771-0.811-2.319
		c-0.539-0.549-1.299-0.822-2.281-0.822h-0.367h-1.842v7.73h-0.76v-16.541h2.969c1.324,0,2.293,0.355,2.908,1.067
		c0.613,0.712,0.92,1.821,0.92,3.325c0,1.473-0.303,2.569-0.908,3.288c-0.262,0.313-0.59,0.565-0.98,0.763
		C294.287,166.333,294.566,166.529,294.813,166.774z M292.039,165.768c1.096,0,1.873-0.277,2.33-0.834
		c0.492-0.589,0.736-1.521,0.736-2.798c0-1.292-0.236-2.216-0.711-2.772s-1.26-0.834-2.355-0.834h-2.209v7.238h1.842H292.039z"/>
	<path d="M298.344,158.529v7.116h5.18v0.761h-5.18v7.142h5.18v0.761h-5.939v-16.541h5.939v0.762H298.344z"/>
</g>
<g>
	<path d="M12.479,139.93H1.773V55.988h17.426c7.136,0,12.566,2.089,16.288,6.264c3.417,4.025,5.125,9.795,5.125,17.312
		c0,7.67-1.708,13.48-5.125,17.428c-3.645,4.252-9.075,6.377-16.288,6.377h-6.72V139.93z M12.479,92.549h6.72
		c2.961,0,4.972-0.342,6.037-1.025c1.063-0.684,1.746-1.213,2.05-1.594c1.669-1.746,2.505-5.201,2.505-10.365
		c0-2.733-0.228-4.935-0.683-6.605c-0.456-1.669-1.121-2.961-1.993-3.873c-0.874-0.911-1.976-1.518-3.303-1.822
		c-1.329-0.303-2.867-0.456-4.613-0.456h-6.72V92.549z"/>
	<path d="M56.215,139.93H45.508V55.988h9.454l16.971,59.113L88.79,55.988h9.453v83.941H87.537V99.725L75.919,139.93h-8.087
		L56.215,99.725V139.93z"/>
	<path d="M117.491,139.93h-10.707V55.988h17.426c7.136,0,12.566,2.089,16.288,6.264c3.417,4.025,5.125,9.795,5.125,17.312
		c0,7.67-1.708,13.48-5.125,17.428c-3.645,4.252-9.075,6.377-16.288,6.377h-6.72V139.93z M117.491,92.549h6.72
		c2.961,0,4.972-0.342,6.037-1.025c1.063-0.684,1.746-1.213,2.05-1.594c1.669-1.746,2.505-5.201,2.505-10.365
		c0-2.733-0.228-4.935-0.683-6.605c-0.456-1.669-1.121-2.961-1.993-3.873c-0.874-0.911-1.976-1.518-3.303-1.822
		c-1.329-0.303-2.867-0.456-4.613-0.456h-6.72V92.549z"/>
</g>
</svg>
